<?xml version="1.0" encoding="utf-8"?>
<!-- Generator: Adobe Illustrator 25.3.1, SVG Export Plug-In . SVG Version: 6.00 Build 0)  -->
<svg version="1.1" xmlns="http://www.w3.org/2000/svg" xmlns:xlink="http://www.w3.org/1999/xlink" x="0px" y="0px"
	 viewBox="0 0 48 48" style="enable-background:new 0 0 48 48;" xml:space="preserve">
<style type="text/css">
	.st0{clip-path:url(#SVGID_2_);fill:#FFCF00;}
	.st1{clip-path:url(#SVGID_2_);fill:#014898;}
	.st2{clip-path:url(#SVGID_2_);fill:#E20613;}
	.st3{fill:#FFFFFF;}
	.st4{fill:#E20613;}
	.st5{fill:#014898;}
</style>
<g id="Capa_2">
</g>
<g id="Capa_1">
	<g>
		<g>
			<defs>
				<path id="SVGID_1_" d="M-49.26,16.94l-2.73,14.43c-0.07,0.36-0.44,0.65-0.82,0.65H-56c-0.39,0-0.64-0.29-0.58-0.65l1.08-5.73
					c0.11-0.57-0.57-0.87-1.09-0.48l-1.82,1.7c-0.31,0.23-0.73,0.23-0.95,0l-1.18-1.7c-0.37-0.39-1.16-0.09-1.27,0.48l-1.08,5.73
					c-0.07,0.36-0.44,0.65-0.82,0.65h-3.19c-0.39,0-0.64-0.29-0.58-0.65l2.73-14.43c0.11-0.57,0.89-0.87,1.27-0.48l5.02,5.65
					c0.22,0.23,0.64,0.23,0.95,0l7.16-5.65C-49.82,16.07-49.15,16.37-49.26,16.94z M-35.06,29.79c-2,1.62-4.58,2.6-7.2,2.49
					c-4.55-0.18-7.63-3.66-7-7.94c0.69-4.72,5.47-8.62,10.51-8.62c2.49,0,4.57,0.96,5.89,2.51c0.32,0.38,0.15,0.99-0.35,1.31
					l-2.06,1.3c-0.42,0.26-0.93,0.24-1.21-0.06c-0.7-0.74-1.74-1.18-2.97-1.18c-2.45-0.01-4.88,1.77-5.51,4.05
					c-0.71,2.59,1.08,4.77,3.81,4.77c1.24,0,2.46-0.44,3.44-1.17c0.39-0.29,0.91-0.32,1.23-0.06l1.56,1.28
					C-34.53,28.78-34.59,29.4-35.06,29.79z M-35.3,19.18c0.41,0.39,0.63,0.7,0.63,0.71c0.07,0.1,0.18,0.16,0.29,0.16
					c0.07,0,0.13-0.02,0.19-0.06c0.16-0.1,0.2-0.32,0.1-0.48c-0.01-0.02-0.26-0.39-0.74-0.84c-0.14-0.13-0.36-0.12-0.49,0.02
					C-35.44,18.83-35.44,19.05-35.3,19.18z M-39.09,17.36c-0.01,0.19,0.14,0.35,0.33,0.36c0.65,0.03,1.27,0.17,1.86,0.41
					c0.04,0.02,0.09,0.03,0.14,0.03c0.13,0,0.26-0.08,0.32-0.21c0.07-0.18-0.01-0.38-0.18-0.45c-0.66-0.28-1.37-0.44-2.1-0.47
					C-38.92,17.02-39.08,17.17-39.09,17.36z M-42.97,18.5c0.06,0.12,0.18,0.19,0.31,0.19c0.05,0,0.11-0.01,0.16-0.04
					c0.67-0.35,1.16-0.5,1.16-0.5c0.01,0,0.01,0,0.02-0.01c0.22-0.08,0.44-0.15,0.66-0.21c0.18-0.05,0.29-0.24,0.24-0.42
					c-0.05-0.18-0.24-0.29-0.42-0.24c-0.23,0.06-0.47,0.14-0.7,0.22c-0.08,0.02-0.58,0.19-1.27,0.54
					C-42.99,18.13-43.06,18.34-42.97,18.5z M-47.07,25.1c0.01,0,0.01,0,0.02,0c0.18,0,0.34-0.14,0.34-0.33
					c0.03-0.67,0.15-1.31,0.35-1.9c0.06-0.18-0.04-0.38-0.22-0.44c-0.18-0.06-0.38,0.04-0.44,0.22c-0.22,0.66-0.35,1.36-0.38,2.09
					C-47.41,24.93-47.26,25.09-47.07,25.1z M-45.79,28.43c-0.35-0.48-0.61-1.06-0.76-1.72c-0.04-0.19-0.23-0.3-0.41-0.26
					c-0.19,0.04-0.3,0.23-0.26,0.41c0.17,0.75,0.47,1.42,0.88,1.98c0.07,0.09,0.17,0.14,0.28,0.14c0.07,0,0.14-0.02,0.2-0.07
					C-45.71,28.8-45.68,28.58-45.79,28.43z M-45.48,21.15c0.37-0.51,0.81-0.99,1.33-1.42c0.15-0.12,0.17-0.34,0.05-0.49
					c-0.12-0.15-0.34-0.17-0.49-0.05c-0.56,0.47-1.05,0.99-1.45,1.55c-0.11,0.16-0.08,0.37,0.08,0.48c0.06,0.04,0.13,0.06,0.2,0.06
					C-45.65,21.3-45.55,21.25-45.48,21.15z M-42.54,30.18c-0.68-0.09-1.29-0.27-1.83-0.55c-0.17-0.09-0.38-0.02-0.47,0.15
					c-0.09,0.17-0.02,0.38,0.15,0.47c0.61,0.32,1.3,0.52,2.06,0.62c0.01,0,0.03,0,0.04,0c0.17,0,0.32-0.13,0.34-0.3
					C-42.21,30.38-42.35,30.2-42.54,30.18z M-38.31,29.62c-0.08-0.17-0.29-0.25-0.46-0.17c-0.74,0.34-1.42,0.53-1.86,0.63
					c-0.19,0.04-0.3,0.23-0.26,0.41c0.04,0.16,0.18,0.27,0.34,0.27c0.03,0,0.05,0,0.08-0.01c0.69-0.16,1.36-0.38,2-0.68
					C-38.3,30-38.23,29.79-38.31,29.62z M-35.87,27.76c-0.14-0.13-0.36-0.13-0.49,0.01c-0.23,0.23-0.47,0.46-0.74,0.66
					c-0.15,0.12-0.18,0.34-0.06,0.49c0.07,0.09,0.17,0.13,0.27,0.13c0.07,0,0.15-0.02,0.21-0.07c0.29-0.22,0.56-0.47,0.8-0.73
					C-35.73,28.11-35.73,27.9-35.87,27.76z M-20.97,28.54h-6.9c-0.39,0-0.65-0.3-0.58-0.66l0.28-1.48c0.07-0.37,0.44-0.66,0.83-0.66
					h5.18c0.39,0,0.76-0.3,0.83-0.66l0.41-2.15c0.07-0.37-0.19-0.66-0.58-0.66h-5.18c-0.39,0-0.65-0.3-0.58-0.66l0.28-1.48
					c0.07-0.37,0.44-0.66,0.83-0.66h3.46c0.39,0,0.76-0.3,0.83-0.66l0.41-2.15c0.07-0.37-0.19-0.66-0.58-0.66h-8.04
					c-0.39,0-0.76,0.3-0.83,0.66l-2.78,14.72c-0.07,0.37,0.19,0.66,0.58,0.66h11.48c0.39,0,0.76-0.3,0.83-0.66l0.41-2.15
					C-20.32,28.84-20.58,28.54-20.97,28.54z"/>
			</defs>
			<clipPath id="SVGID_2_">
				<use xlink:href="#SVGID_1_"  style="overflow:visible;"/>
			</clipPath>
			<rect x="-67.92" y="15.55" class="st0" width="49.25" height="8.47"/>
			<rect x="-67.92" y="24.02" class="st1" width="49.25" height="4.26"/>
			<rect x="-67.92" y="28.28" class="st2" width="49.25" height="4.26"/>
		</g>
		<g>
			<path class="st3" d="M-22.43,30.75h-0.73c-0.16,0-0.28-0.13-0.28-0.28c0-0.16,0.13-0.28,0.28-0.28h0.73
				c0.16,0,0.28,0.13,0.28,0.28C-22.15,30.63-22.28,30.75-22.43,30.75z"/>
			<path class="st3" d="M-24.61,30.75h-1.45c-0.16,0-0.28-0.13-0.28-0.28c0-0.16,0.13-0.28,0.28-0.28h1.45
				c0.16,0,0.28,0.13,0.28,0.28C-24.33,30.63-24.46,30.75-24.61,30.75z M-27.51,30.75h-1.45c-0.16,0-0.28-0.13-0.28-0.28
				c0-0.16,0.13-0.28,0.28-0.28h1.45c0.16,0,0.28,0.13,0.28,0.28C-27.23,30.63-27.36,30.75-27.51,30.75z"/>
			<path class="st3" d="M-30.41,30.75h-0.73c-0.08,0-0.16-0.04-0.22-0.1c-0.05-0.06-0.08-0.15-0.06-0.23l0.13-0.72
				c0.03-0.15,0.18-0.26,0.33-0.23c0.15,0.03,0.26,0.18,0.23,0.33l-0.07,0.38h0.39c0.16,0,0.28,0.13,0.28,0.28
				C-30.13,30.63-30.26,30.75-30.41,30.75z"/>
			<path class="st3" d="M-30.78,28.76c-0.02,0-0.03,0-0.05,0c-0.15-0.03-0.26-0.18-0.23-0.33l0.23-1.27
				c0.03-0.15,0.18-0.26,0.33-0.23c0.15,0.03,0.26,0.18,0.23,0.33l-0.23,1.27C-30.53,28.67-30.64,28.76-30.78,28.76z M-30.31,26.22
				c-0.02,0-0.03,0-0.05,0c-0.15-0.03-0.26-0.18-0.23-0.33l0.23-1.27c0.03-0.15,0.18-0.26,0.33-0.23c0.15,0.03,0.26,0.18,0.23,0.33
				l-0.23,1.27C-30.06,26.13-30.18,26.22-30.31,26.22z M-29.85,23.68c-0.02,0-0.03,0-0.05,0c-0.15-0.03-0.26-0.18-0.23-0.33
				l0.23-1.27c0.03-0.15,0.18-0.26,0.33-0.23c0.15,0.03,0.26,0.18,0.23,0.33l-0.23,1.27C-29.59,23.58-29.71,23.68-29.85,23.68z
				 M-29.38,21.14c-0.02,0-0.03,0-0.05,0c-0.15-0.03-0.26-0.18-0.23-0.33l0.23-1.27c0.03-0.15,0.18-0.26,0.33-0.23
				c0.15,0.03,0.26,0.18,0.23,0.33l-0.23,1.27C-29.13,21.04-29.25,21.14-29.38,21.14z"/>
			<path class="st3" d="M-28.91,18.59c-0.02,0-0.03,0-0.05,0c-0.15-0.03-0.26-0.18-0.23-0.33l0.13-0.72
				c0.02-0.13,0.14-0.23,0.28-0.23h0.73c0.16,0,0.28,0.13,0.28,0.28s-0.13,0.28-0.28,0.28h-0.49l-0.09,0.48
				C-28.66,18.5-28.78,18.59-28.91,18.59z"/>
			<path class="st3" d="M-25.57,17.88h-1.24c-0.16,0-0.28-0.13-0.28-0.28s0.13-0.28,0.28-0.28h1.24c0.16,0,0.28,0.13,0.28,0.28
				S-25.41,17.88-25.57,17.88z"/>
			<path class="st3" d="M-23.59,17.88h-0.73c-0.16,0-0.28-0.13-0.28-0.28s0.13-0.28,0.28-0.28h0.73c0.16,0,0.28,0.13,0.28,0.28
				S-23.44,17.88-23.59,17.88z"/>
		</g>
		<g>
			<path class="st3" d="M-22.51,24.28h-0.73c-0.16,0-0.28-0.13-0.28-0.28c0-0.16,0.13-0.28,0.28-0.28h0.73
				c0.16,0,0.28,0.13,0.28,0.28C-22.23,24.16-22.35,24.28-22.51,24.28z"/>
			<path class="st3" d="M-24.93,24.28h-1.69c-0.16,0-0.28-0.13-0.28-0.28c0-0.16,0.13-0.28,0.28-0.28h1.69
				c0.16,0,0.28,0.13,0.28,0.28C-24.64,24.16-24.77,24.28-24.93,24.28z"/>
			<path class="st3" d="M-28.3,24.28h-0.73c-0.16,0-0.28-0.13-0.28-0.28c0-0.16,0.13-0.28,0.28-0.28h0.73
				c0.16,0,0.28,0.13,0.28,0.28C-28.02,24.16-28.14,24.28-28.3,24.28z"/>
		</g>
		<g>
			<path class="st3" d="M-65.01,30.84c-0.01,0-0.03,0-0.04,0c-0.15-0.02-0.26-0.17-0.24-0.32l0.11-0.72
				c0.02-0.15,0.17-0.26,0.32-0.24c0.15,0.02,0.26,0.17,0.24,0.32l-0.11,0.72C-64.75,30.74-64.87,30.84-65.01,30.84z"/>
			<path class="st3" d="M-64.69,28.82c-0.01,0-0.03,0-0.04,0c-0.15-0.02-0.26-0.17-0.24-0.32l0.2-1.3c0.02-0.15,0.17-0.26,0.32-0.24
				c0.15,0.02,0.26,0.17,0.24,0.32l-0.2,1.3C-64.43,28.72-64.55,28.82-64.69,28.82z M-64.28,26.23c-0.01,0-0.03,0-0.04,0
				c-0.15-0.02-0.26-0.17-0.24-0.32l0.2-1.3c0.02-0.15,0.17-0.26,0.32-0.24c0.15,0.02,0.26,0.17,0.24,0.32l-0.2,1.3
				C-64.02,26.13-64.14,26.23-64.28,26.23z M-63.87,23.64c-0.01,0-0.03,0-0.04,0c-0.15-0.02-0.26-0.17-0.24-0.32l0.2-1.3
				c0.02-0.15,0.17-0.26,0.32-0.24c0.15,0.02,0.26,0.17,0.24,0.32l-0.2,1.3C-63.61,23.54-63.73,23.64-63.87,23.64z"/>
			<path class="st3" d="M-63.46,21.05c-0.01,0-0.03,0-0.04,0c-0.15-0.02-0.26-0.17-0.24-0.32l0.11-0.72c0.02-0.11,0.1-0.2,0.2-0.23
				c0.11-0.03,0.22,0,0.29,0.08l0.48,0.55c0.1,0.12,0.09,0.3-0.02,0.4c-0.12,0.1-0.3,0.09-0.4-0.02l-0.09-0.1l-0.02,0.13
				C-63.2,20.95-63.33,21.05-63.46,21.05z"/>
			<path class="st3" d="M-60.52,23.52c-0.08,0-0.16-0.03-0.21-0.1l-1.17-1.32c-0.1-0.12-0.09-0.3,0.02-0.4
				c0.12-0.1,0.3-0.09,0.4,0.02l1.17,1.32c0.1,0.12,0.09,0.3-0.02,0.4C-60.39,23.49-60.45,23.52-60.52,23.52z"/>
			<path class="st3" d="M-58.87,25.38c-0.08,0-0.16-0.03-0.21-0.1l-0.48-0.55c-0.1-0.12-0.09-0.3,0.02-0.4
				c0.12-0.1,0.3-0.09,0.4,0.02l0.31,0.35l0.37-0.28c0.12-0.1,0.3-0.07,0.4,0.05c0.1,0.12,0.07,0.3-0.05,0.4l-0.58,0.44
				C-58.74,25.37-58.81,25.38-58.87,25.38z"/>
			<path class="st3" d="M-57.25,24.14c-0.09,0-0.17-0.04-0.23-0.11c-0.1-0.12-0.07-0.3,0.05-0.4l1.04-0.8
				c0.12-0.1,0.3-0.07,0.4,0.05c0.1,0.12,0.07,0.3-0.05,0.4l-1.04,0.8C-57.12,24.12-57.19,24.14-57.25,24.14z M-55.16,22.54
				c-0.09,0-0.17-0.04-0.23-0.11c-0.1-0.12-0.07-0.3,0.05-0.4l1.04-0.8c0.12-0.1,0.3-0.07,0.4,0.05c0.1,0.12,0.07,0.3-0.05,0.4
				l-1.04,0.8C-55.04,22.52-55.1,22.54-55.16,22.54z"/>
			<path class="st3" d="M-52.62,21.21c-0.01,0-0.03,0-0.05,0c-0.15-0.02-0.26-0.17-0.24-0.33l0-0.02l-0.01,0.01
				c-0.12,0.1-0.3,0.07-0.4-0.05c-0.1-0.12-0.07-0.3,0.05-0.4l0.58-0.44c0.09-0.07,0.22-0.08,0.32-0.02
				c0.1,0.06,0.15,0.17,0.13,0.29l-0.12,0.72C-52.36,21.11-52.48,21.21-52.62,21.21z"/>
			<path class="st3" d="M-53.84,28.85c-0.01,0-0.03,0-0.05,0c-0.15-0.02-0.26-0.17-0.24-0.33l0.2-1.27
				c0.02-0.15,0.17-0.26,0.33-0.24c0.15,0.02,0.26,0.17,0.24,0.33l-0.2,1.27C-53.59,28.75-53.71,28.85-53.84,28.85z M-53.44,26.3
				c-0.01,0-0.03,0-0.05,0c-0.15-0.02-0.26-0.17-0.24-0.33l0.2-1.27c0.02-0.15,0.17-0.26,0.33-0.24c0.15,0.02,0.26,0.17,0.24,0.33
				l-0.2,1.27C-53.18,26.2-53.3,26.3-53.44,26.3z M-53.03,23.76c-0.01,0-0.03,0-0.05,0c-0.15-0.02-0.26-0.17-0.24-0.33l0.2-1.27
				c0.02-0.15,0.17-0.26,0.33-0.24c0.15,0.02,0.26,0.17,0.24,0.33l-0.2,1.27C-52.77,23.66-52.89,23.76-53.03,23.76z"/>
			<path class="st3" d="M-54.16,30.84c-0.01,0-0.03,0-0.05,0c-0.15-0.02-0.26-0.17-0.24-0.33l0.12-0.72
				c0.02-0.15,0.17-0.26,0.33-0.24c0.15,0.02,0.26,0.17,0.24,0.33l-0.12,0.72C-53.91,30.74-54.03,30.84-54.16,30.84z"/>
		</g>
		<path class="st3" d="M-35.3,19.18c0.41,0.39,0.63,0.7,0.63,0.71c0.07,0.1,0.18,0.16,0.29,0.16c0.07,0,0.13-0.02,0.19-0.06
			c0.16-0.1,0.2-0.32,0.1-0.48c-0.01-0.02-0.26-0.39-0.74-0.84c-0.14-0.13-0.36-0.12-0.49,0.02C-35.44,18.83-35.44,19.05-35.3,19.18
			z"/>
		<path class="st3" d="M-39.09,17.36c-0.01,0.19,0.14,0.35,0.33,0.36c0.65,0.03,1.27,0.17,1.86,0.41c0.04,0.02,0.09,0.03,0.14,0.03
			c0.13,0,0.26-0.08,0.32-0.21c0.07-0.18-0.01-0.38-0.18-0.45c-0.66-0.28-1.37-0.44-2.1-0.47C-38.92,17.02-39.08,17.17-39.09,17.36z
			"/>
		<path class="st3" d="M-42.97,18.5c0.06,0.12,0.18,0.19,0.31,0.19c0.05,0,0.11-0.01,0.16-0.04c0.67-0.35,1.16-0.5,1.16-0.5
			c0.01,0,0.01,0,0.02-0.01c0.22-0.08,0.44-0.15,0.66-0.21c0.18-0.05,0.29-0.24,0.24-0.42c-0.05-0.18-0.24-0.29-0.42-0.24
			c-0.23,0.06-0.47,0.14-0.7,0.22c-0.08,0.02-0.58,0.19-1.27,0.54C-42.99,18.13-43.06,18.34-42.97,18.5z"/>
		<path class="st3" d="M-47.07,25.1c0.01,0,0.01,0,0.02,0c0.18,0,0.34-0.14,0.34-0.33c0.03-0.67,0.15-1.31,0.35-1.9
			c0.06-0.18-0.04-0.38-0.22-0.44c-0.18-0.06-0.38,0.04-0.44,0.22c-0.22,0.66-0.35,1.36-0.38,2.09
			C-47.41,24.93-47.26,25.09-47.07,25.1z"/>
		<path class="st3" d="M-45.79,28.43c-0.35-0.48-0.61-1.06-0.76-1.72c-0.04-0.19-0.23-0.3-0.41-0.26c-0.19,0.04-0.3,0.23-0.26,0.41
			c0.17,0.75,0.47,1.42,0.88,1.98c0.07,0.09,0.17,0.14,0.28,0.14c0.07,0,0.14-0.02,0.2-0.07C-45.71,28.8-45.68,28.58-45.79,28.43z"
			/>
		<path class="st3" d="M-45.48,21.15c0.37-0.51,0.81-0.99,1.33-1.42c0.15-0.12,0.17-0.34,0.05-0.49c-0.12-0.15-0.34-0.17-0.49-0.05
			c-0.56,0.47-1.05,0.99-1.45,1.55c-0.11,0.16-0.08,0.37,0.08,0.48c0.06,0.04,0.13,0.06,0.2,0.06
			C-45.65,21.3-45.55,21.25-45.48,21.15z"/>
		<path class="st3" d="M-42.54,30.18c-0.68-0.09-1.29-0.27-1.83-0.55c-0.17-0.09-0.38-0.02-0.47,0.15
			c-0.09,0.17-0.02,0.38,0.15,0.47c0.61,0.32,1.3,0.52,2.06,0.62c0.01,0,0.03,0,0.04,0c0.17,0,0.32-0.13,0.34-0.3
			C-42.21,30.38-42.35,30.2-42.54,30.18z"/>
		<path class="st3" d="M-38.31,29.62c-0.08-0.17-0.29-0.25-0.46-0.17c-0.74,0.34-1.42,0.53-1.86,0.63c-0.19,0.04-0.3,0.23-0.26,0.41
			c0.04,0.16,0.18,0.27,0.34,0.27c0.03,0,0.05,0,0.08-0.01c0.69-0.16,1.36-0.38,2-0.68C-38.3,30-38.23,29.79-38.31,29.62z"/>
		<path class="st3" d="M-35.87,27.76c-0.14-0.13-0.36-0.13-0.49,0.01c-0.23,0.23-0.47,0.46-0.74,0.66
			c-0.15,0.12-0.18,0.34-0.06,0.49c0.07,0.09,0.17,0.13,0.27,0.13c0.07,0,0.15-0.02,0.21-0.07c0.29-0.22,0.56-0.47,0.8-0.73
			C-35.73,28.11-35.73,27.9-35.87,27.76z"/>
	</g>
	<g>
		<g>
			<path class="st4" d="M11.26,44.41c0,0-2.38-15.78-8.72-19.51C1.39,25.63,15.88,13.48,18.47,4.66c0,0-2.89,11.32-9.7,20.4
				C8.77,25.06,12.93,30.71,11.26,44.41z"/>
			<path class="st4" d="M18.91,39.58c0,1.26-1.02,2.28-2.28,2.28c-1.26,0-2.28-1.02-2.28-2.28c0-1.26,1.02-2.28,2.28-2.28
				C17.88,37.3,18.91,38.32,18.91,39.58z"/>
			<path class="st4" d="M26.56,39.58c0,1.26-1.02,2.28-2.28,2.28c-1.26,0-2.28-1.02-2.28-2.28c0-1.26,1.02-2.28,2.28-2.28
				C25.54,37.3,26.56,38.32,26.56,39.58z"/>
		</g>
		<g>
			<g>
				<path class="st5" d="M36.74,3.59c0,0,2.37,15.78,8.72,19.51c1.15-0.72-13.34,11.43-15.93,20.25c0,0,2.89-11.32,9.7-20.4
					C39.23,22.94,35.07,17.28,36.74,3.59z"/>
				<path class="st5" d="M26.56,9.53c0,1.26-1.02,2.28-2.28,2.28c-1.26,0-2.28-1.02-2.28-2.28c0-1.26,1.02-2.28,2.28-2.28
					C25.54,7.25,26.56,8.27,26.56,9.53z"/>
				<path class="st5" d="M33.97,9.53c0,1.26-1.02,2.28-2.28,2.28c-1.26,0-2.28-1.02-2.28-2.28c0-1.26,1.02-2.28,2.28-2.28
					C32.95,7.25,33.97,8.27,33.97,9.53z"/>
			</g>
		</g>
	</g>
</g>
<g id="Capa_3">
</g>
</svg>
