<?xml version="1.0" encoding="utf-8"?>
<!-- Generator: Adobe Illustrator 25.3.1, SVG Export Plug-In . SVG Version: 6.00 Build 0)  -->
<svg version="1.1" xmlns="http://www.w3.org/2000/svg" xmlns:xlink="http://www.w3.org/1999/xlink" x="0px" y="0px"
	 viewBox="0 0 1224 607.85" style="enable-background:new 0 0 1224 607.85;" xml:space="preserve">
<style type="text/css">
	.st0{clip-path:url(#SVGID_2_);fill:#FFD004;}
	.st1{clip-path:url(#SVGID_2_);fill:#004A97;}
	.st2{clip-path:url(#SVGID_2_);fill:#E20E17;}
	.st3{fill:#E20E17;}
	.st4{fill:#004A97;}
	.st5{fill:#FFFFFF;}
</style>
<g id="Capa_2">
</g>
<g id="Capa_1">
	<g>
		<path d="M161.17,400.66l-11.39,64.58h-16.67l5.42-30.73l-13.34,10.68l-9.58-10.68l-5.42,30.73H93.52l11.39-64.58l23.54,26.04
			L161.17,400.66z"/>
		<path d="M224.61,402.74l-6.61,37.5c-2.95,16.75-13.88,26.04-30.64,26.04s-24.41-9.29-21.45-26.04l6.61-37.5h16.67l-6.61,37.5
			c-1.24,7.03,1.46,10.94,7.45,10.94c5.99,0,10.07-3.91,11.3-10.94l6.61-37.5H224.61z"/>
		<path d="M286.55,433.99c-3.44,19.53-17.23,31.25-36.76,31.25h-24.48l11.02-62.5h24.48C280.34,402.74,290,414.46,286.55,433.99z
			 M269.89,433.99c2-11.37-2.09-17.71-11.46-17.71h-7.81l-6.24,35.42h7.81C261.55,451.7,267.88,445.36,269.89,433.99z"/>
		<path d="M327.55,465.23h13.92l-18.84-64.57l-41.6,64.57h15.85l4.37-6.69h24.39L327.55,465.23z M309.22,446.33l9-13.78l3.93,13.78
			H309.22z"/>
		<path d="M518.89,465.23h13.92l-18.84-64.57l-41.6,64.57h15.85l4.37-6.69h24.39L518.89,465.23z M500.56,446.33l9-13.78l3.93,13.78
			H500.56z"/>
		<path d="M795.92,553.29h13.92l-18.84-64.57l-41.6,64.57h15.85l4.37-6.69h24.39L795.92,553.29z M777.59,534.39l9-13.78l3.93,13.78
			H777.59z"/>
		<path d="M1093.59,465.23h13.92l-18.84-64.57l-41.6,64.57h15.85l4.37-6.69h24.39L1093.59,465.23z M1075.26,446.33l9-13.78
			l3.93,13.78H1075.26z"/>
		<path d="M413.26,402.74l-11.39,64.58l-29.64-32.81l-5.42,30.73h-16.67l11.39-64.58l29.64,32.81l5.42-30.73H413.26z"/>
		<path d="M440.65,451.7h27.87l-2.39,13.54h-55.21l37.54-48.96h-26.83l2.39-13.54h54.17L440.65,451.7z"/>
		<path d="M594.45,446.49c-2.25,12.76-13.04,19.79-30.06,19.79c-17.1,0-25.25-7.46-22.89-20.83h16.67c-0.76,4.34,2.37,6.77,8.7,6.77
			c6.34,0,10.26-2.08,10.91-5.73c2.2-12.5-36.03,0.52-31.53-25c2.23-12.67,12.78-19.79,29.53-19.79c16.76,0,24.73,7.47,22.37,20.84
			h-16.67c0.76-4.34-2.19-6.77-8.18-6.77s-9.74,2.08-10.39,5.73C560.71,433.99,598.95,420.97,594.45,446.49z"/>
		<path d="M675.45,444.49l10.37,9.11c-7.27,7.73-17.43,12.67-27.85,12.67c-17.88,0-29.75-14.41-26.6-32.29
			c3.14-17.79,20.11-32.29,37.99-32.29c10.42,0,18.83,4.95,23.38,12.67l-13.6,9.2c-2.39-4.17-6.88-6.77-12.44-6.77
			c-9.46,0-18.55,7.73-20.22,17.19c-1.67,9.46,4.7,17.19,14.16,17.19C666.2,451.18,671.6,448.57,675.45,444.49z"/>
		<path d="M757.08,433.99c-3.15,17.88-20.19,32.29-37.99,32.29c-17.88,0-29.75-14.41-26.6-32.29c3.14-17.79,20.11-32.29,37.99-32.29
			C748.28,401.7,760.22,416.19,757.08,433.99z M741.98,433.99c1.67-9.46-4.7-17.19-14.16-17.19c-9.46,0-18.55,7.73-20.22,17.19
			c-1.67,9.46,4.7,17.19,14.16,17.19C731.22,451.18,740.31,443.45,741.98,433.99z"/>
		<path d="M779.31,451.7h26.04l-2.39,13.54h-42.71l11.02-62.5h16.67L779.31,451.7z"/>
		<path d="M876.54,433.99c-3.15,17.88-20.19,32.29-37.99,32.29c-17.88,0-29.75-14.41-26.6-32.29c3.14-17.79,20.1-32.29,37.99-32.29
			C867.73,401.7,879.68,416.19,876.54,433.99z M861.43,433.99c1.67-9.46-4.7-17.19-14.16-17.19c-9.46,0-18.55,7.73-20.22,17.19
			c-1.67,9.46,4.7,17.19,14.16,17.19C850.68,451.18,859.76,443.45,861.43,433.99z"/>
		<path d="M947.35,400.66l-11.39,64.58H919.3l5.42-30.73l-13.34,10.68l-9.58-10.68l-5.42,30.73h-16.67l11.39-64.58l23.54,26.04
			L947.35,400.66z"/>
		<path d="M1005.46,447.27c-2.27,12.85-11.94,17.97-33.9,17.97h-23.44l11.02-62.5h23.44c21.18,0,28.79,5.12,26.52,17.97
			c-1.13,6.42-4.66,10.68-11.27,13.19C1004.36,436.25,1006.64,440.59,1005.46,447.27z M988.97,446.23c0.73-4.17-2.33-5.47-13.1-5.47
			h-6.77l-1.93,10.94h6.77C984.71,451.7,988.24,450.4,988.97,446.23z M971.49,427.22h6.77c9.98,0,13.25-1.3,13.99-5.47
			c0.73-4.17-2.07-5.47-12.06-5.47h-6.77L971.49,427.22z"/>
		<path d="M1042.53,451.7l-2.39,13.54h-29.17l2.39-13.54h6.25l6.24-35.42h-6.25l2.39-13.54h29.17l-2.39,13.54h-6.25l-6.24,35.42
			H1042.53z"/>
		<path d="M349.34,539.75l-2.39,13.54h-46.88l11.02-62.5h34.38l-2.39,13.54h-17.71l-1.93,10.94h23.96l-2.39,13.54h-23.96
			l-1.93,10.94H349.34z"/>
		<path d="M396.65,522.04l14.89,31.25h-18.66l-8.04-16.93l-14.01,16.93h-18.66l25.91-31.25l-14.89-31.25h18.66l8.04,16.93
			l14.01-16.93h18.66L396.65,522.04z"/>
		<path d="M481.8,511.28c-2.59,14.67-12.38,20.49-34.34,20.49h-6.77l-3.8,21.53h-16.67l11.02-62.5h23.44
			C476.64,490.79,484.37,496.7,481.8,511.28z M465.13,511.28c0.92-5.21-2.33-6.94-12.84-6.94h-6.77l-2.45,13.89h6.77
			C460.35,518.22,464.21,516.49,465.13,511.28z"/>
		<path d="M519.62,553.29l-10.18-21.53h-5.9l-3.8,21.53h-16.67l11.02-62.5h23.44c21.97,0,29.69,5.9,27.12,20.49
			c-1.79,10.16-7.08,16.06-17.46,18.75l11.09,23.27H519.62z M505.92,518.22h6.77c10.51,0,14.37-1.74,15.29-6.94
			s-2.33-6.94-12.84-6.94h-6.77L505.92,518.22z"/>
		<path d="M596.93,539.75l-2.39,13.54h-46.88l11.02-62.5h34.38l-2.39,13.54h-17.71l-1.93,10.94H595l-2.39,13.54h-23.96l-1.93,10.94
			H596.93z"/>
		<path d="M657.92,534.55c-2.25,12.76-13.04,19.79-30.06,19.79c-17.1,0-25.25-7.47-22.89-20.84h16.67c-0.76,4.34,2.37,6.77,8.7,6.77
			c6.34,0,10.26-2.08,10.91-5.73c2.2-12.5-36.03,0.52-31.53-25c2.23-12.67,12.78-19.79,29.53-19.79s24.73,7.47,22.37,20.83h-16.67
			c0.76-4.34-2.19-6.77-8.18-6.77s-9.74,2.08-10.39,5.73C624.18,522.04,662.42,509.02,657.92,534.55z"/>
		<path d="M747.51,534.55c-2.25,12.76-13.04,19.79-30.06,19.79c-17.1,0-25.25-7.47-22.89-20.84h16.67c-0.76,4.34,2.37,6.77,8.7,6.77
			c6.34,0,10.27-2.08,10.91-5.73c2.2-12.5-36.03,0.52-31.53-25c2.23-12.67,12.78-19.79,29.53-19.79c16.76,0,24.73,7.47,22.37,20.83
			h-16.67c0.76-4.34-2.19-6.77-8.18-6.77s-9.74,2.08-10.38,5.73C713.78,522.04,752.01,509.02,747.51,534.55z"/>
		<path d="M871.48,534.55c-2.25,12.76-13.04,19.79-30.06,19.79c-17.1,0-25.25-7.47-22.89-20.84h16.67c-0.76,4.34,2.37,6.77,8.7,6.77
			c6.34,0,10.26-2.08,10.91-5.73c2.2-12.5-36.03,0.52-31.53-25c2.23-12.67,12.78-19.79,29.53-19.79s24.73,7.47,22.37,20.83h-16.67
			c0.76-4.34-2.19-6.77-8.18-6.77s-9.74,2.08-10.39,5.73C837.75,522.04,875.98,509.02,871.48,534.55z"/>
		<polygon points="571.68,488.7 581.06,488.7 586.88,477.75 574.88,477.75 		"/>
	</g>
</g>
<g id="Capa_3">
	<g>
		<g>
			<defs>
				<path id="SVGID_1_" d="M527.69,87.76L476.3,359.53c-1.28,6.78-8.22,12.28-15.5,12.28h-60.04c-7.28,0-12.13-5.5-10.85-12.28
					l20.42-108.01c2.03-10.74-10.65-16.31-20.45-8.99l-34.3,31.96c-5.89,4.4-13.73,4.4-17.96,0l-22.22-31.96
					c-7.04-7.32-21.82-1.75-23.85,8.99l-20.42,108.01c-1.28,6.78-8.22,12.28-15.5,12.28h-60.04c-7.28,0-12.13-5.5-10.85-12.28
					l51.39-271.76c2.03-10.72,16.77-16.29,23.83-9.01l94.58,106.45c4.23,4.36,12.03,4.36,17.9,0L507.27,78.75
					C517.08,71.47,529.71,77.05,527.69,87.76z M795.12,329.75c-37.71,30.59-86.36,48.88-135.62,46.96
					c-85.8-3.35-143.65-68.97-131.86-149.57c13.01-88.9,103-162.45,197.97-162.45c46.91,0,86,18.05,110.88,47.28
					c6.04,7.1,2.87,18.64-6.68,24.67l-38.73,24.43c-7.88,4.97-17.56,4.49-22.87-1.11c-13.14-13.85-32.73-22.16-55.94-22.27
					c-46.12-0.22-91.89,33.38-103.7,76.29c-13.42,48.77,20.35,89.86,71.81,89.86c23.39,0,46.27-8.3,64.71-21.99
					c7.44-5.52,17.2-6.09,23.21-1.17l29.44,24.12C805.15,310.87,803.96,322.57,795.12,329.75z M790.75,129.9
					c7.79,7.25,11.83,13.23,11.94,13.4c1.25,1.89,3.33,2.92,5.44,2.92c1.23,0,2.47-0.35,3.57-1.07c3-1.98,3.84-6.01,1.86-9.02
					c-0.19-0.29-4.84-7.29-13.94-15.77c-2.63-2.45-6.75-2.3-9.2,0.33C787.97,123.32,788.12,127.44,790.75,129.9z M719.35,95.65
					c-0.15,3.59,2.65,6.63,6.24,6.77c12.21,0.5,23.99,3.12,35.02,7.81c0.83,0.35,1.69,0.52,2.54,0.52c2.53,0,4.94-1.49,6-3.97
					c1.41-3.31-0.14-7.13-3.45-8.54c-12.48-5.3-25.8-8.28-39.59-8.84C722.5,89.27,719.5,92.05,719.35,95.65z M646.18,117.26
					c1.16,2.24,3.43,3.52,5.79,3.52c1,0,2.03-0.24,2.98-0.73c12.63-6.53,21.8-9.36,21.89-9.39c0.1-0.03,0.21-0.07,0.31-0.1
					c4.15-1.49,8.31-2.79,12.37-3.88c3.47-0.93,5.54-4.5,4.61-7.97c-0.93-3.47-4.5-5.54-7.97-4.61c-4.36,1.17-8.83,2.56-13.27,4.15
					c-1.43,0.45-10.96,3.53-23.91,10.23C645.78,110.14,644.52,114.06,646.18,117.26z M569,241.5c0.1,0,0.19,0.01,0.29,0.01
					c3.47,0,6.35-2.73,6.5-6.23c0.54-12.53,2.74-24.59,6.53-35.84c1.15-3.41-0.69-7.1-4.09-8.25c-3.41-1.16-7.1,0.69-8.25,4.09
					c-4.18,12.41-6.6,25.68-7.2,39.43C562.62,238.31,565.41,241.34,569,241.5z M593.11,304.15c-6.64-9.07-11.45-19.99-14.29-32.46
					c-0.8-3.51-4.3-5.7-7.8-4.9c-3.51,0.8-5.7,4.29-4.9,7.8c3.24,14.21,8.79,26.75,16.49,37.26c1.27,1.74,3.25,2.66,5.26,2.66
					c1.34,0,2.68-0.41,3.84-1.26C594.61,311.13,595.24,307.05,593.11,304.15z M598.91,167.1c6.89-9.63,15.34-18.62,25.11-26.71
					c2.77-2.29,3.16-6.4,0.86-9.17c-2.29-2.77-6.4-3.16-9.17-0.86c-10.64,8.81-19.86,18.62-27.4,29.16
					c-2.09,2.93-1.41,6.99,1.51,9.08c1.15,0.82,2.47,1.21,3.78,1.21C595.64,169.83,597.64,168.88,598.91,167.1z M654.38,337.15
					c-12.75-1.62-24.35-5.1-34.49-10.34c-3.19-1.66-7.12-0.4-8.77,2.79c-1.65,3.19-0.4,7.12,2.79,8.77
					c11.49,5.94,24.55,9.87,38.82,11.69c0.28,0.03,0.56,0.05,0.83,0.05c3.23,0,6.03-2.4,6.45-5.69
					C660.47,340.87,657.95,337.61,654.38,337.15z M734.04,326.64c-1.5-3.27-5.37-4.7-8.63-3.2c-13.92,6.4-26.76,9.98-35.08,11.85
					c-3.51,0.79-5.71,4.28-4.92,7.79c0.68,3.02,3.37,5.08,6.35,5.08c0.47,0,0.96-0.05,1.44-0.16c12.98-2.93,25.65-7.21,37.65-12.72
					C734.11,333.77,735.54,329.9,734.04,326.64z M779.99,291.64c-2.58-2.5-6.7-2.43-9.21,0.15c-4.27,4.42-8.93,8.62-13.85,12.49
					c-2.82,2.23-3.31,6.32-1.08,9.15c1.29,1.63,3.19,2.48,5.12,2.48c1.41,0,2.83-0.46,4.03-1.4c5.37-4.23,10.47-8.83,15.15-13.67
					C782.64,298.27,782.58,294.15,779.99,291.64z M1060.51,306.36H930.62c-7.37,0-12.3-5.57-11-12.45l5.29-27.97
					c1.3-6.88,8.33-12.45,15.71-12.45h97.49c7.37,0,14.41-5.57,15.71-12.45l7.67-40.55c1.3-6.88-3.62-12.45-11-12.45H953
					c-7.37,0-12.3-5.57-11-12.45l5.29-27.97c1.3-6.88,8.33-12.45,15.71-12.45h65.09c7.37,0,14.41-5.57,15.71-12.45l7.67-40.56
					c1.3-6.88-3.62-12.45-11-12.45H888.98c-7.37,0-14.41,5.57-15.71,12.45l-52.42,277.19c-1.3,6.88,3.62,12.45,11,12.45h216.27
					c7.37,0,14.4-5.57,15.7-12.45l7.67-40.55C1072.8,311.93,1067.88,306.36,1060.51,306.36z"/>
			</defs>
			<clipPath id="SVGID_2_">
				<use xlink:href="#SVGID_1_"  style="overflow:visible;"/>
			</clipPath>
			<rect x="176.18" y="61.66" class="st0" width="927.61" height="159.49"/>
			<rect x="176.18" y="221.14" class="st1" width="927.61" height="80.23"/>
			<rect x="176.18" y="301.37" class="st2" width="927.61" height="80.23"/>
		</g>
		<g>
			<path class="st3" d="M104.44,374.65c0,0-10.14-67.35-37.21-83.24c-4.91,3.05,56.92-48.79,67.99-86.43c0,0-12.34,48.3-41.41,87.06
				C93.81,292.04,111.56,316.18,104.44,374.65z"/>
			<path class="st3" d="M137.08,354.01c0,5.36-4.36,9.72-9.71,9.72c-5.38,0-9.73-4.36-9.73-9.72c0-5.38,4.35-9.74,9.73-9.74
				C132.72,344.27,137.08,348.63,137.08,354.01z"/>
			<path class="st3" d="M169.76,354.01c0,5.36-4.35,9.72-9.73,9.72c-5.36,0-9.73-4.36-9.73-9.72c0-5.38,4.36-9.74,9.73-9.74
				C165.41,344.27,169.76,348.63,169.76,354.01z"/>
		</g>
		<g>
			<g>
				<path class="st4" d="M1120.81,64.52c0,0,10.13,67.35,37.2,83.25c4.91-3.06-56.93,48.79-67.99,86.42c0,0,12.33-48.3,41.42-87.06
					C1131.44,147.12,1113.67,122.98,1120.81,64.52z"/>
				<path class="st4" d="M1077.35,89.88c0,5.37-4.35,9.72-9.72,9.72c-5.37,0-9.73-4.35-9.73-9.72c0-5.38,4.36-9.73,9.73-9.73
					C1073,80.15,1077.35,84.5,1077.35,89.88z"/>
				<path class="st4" d="M1108.97,89.88c0,5.37-4.36,9.72-9.73,9.72s-9.73-4.35-9.73-9.72c0-5.38,4.36-9.73,9.73-9.73
					S1108.97,84.5,1108.97,89.88z"/>
			</g>
		</g>
		<g>
			<path class="st5" d="M1033.06,347.95h-13.74c-2.95,0-5.34-2.39-5.34-5.34c0-2.95,2.39-5.34,5.34-5.34h13.74
				c2.95,0,5.34,2.39,5.34,5.34C1038.4,345.56,1036.01,347.95,1033.06,347.95z"/>
			<path class="st5" d="M991.99,347.95h-27.33c-2.95,0-5.34-2.39-5.34-5.34c0-2.95,2.39-5.34,5.34-5.34h27.33
				c2.95,0,5.34,2.39,5.34,5.34C997.33,345.56,994.94,347.95,991.99,347.95z M937.34,347.95h-27.33c-2.95,0-5.34-2.39-5.34-5.34
				c0-2.95,2.39-5.34,5.34-5.34h27.33c2.95,0,5.34,2.39,5.34,5.34C942.68,345.56,940.29,347.95,937.34,347.95z"/>
			<path class="st5" d="M882.69,347.95h-13.74c-1.59,0-3.09-0.7-4.1-1.92c-1.02-1.22-1.44-2.82-1.15-4.38l2.48-13.51
				c0.53-2.9,3.31-4.83,6.22-4.29c2.9,0.53,4.82,3.32,4.29,6.22l-1.32,7.21h7.33c2.95,0,5.34,2.39,5.34,5.34
				C888.03,345.56,885.64,347.95,882.69,347.95z"/>
			<path class="st5" d="M875.83,310.49c-0.32,0-0.64-0.03-0.97-0.09c-2.9-0.53-4.82-3.32-4.29-6.22l4.39-23.94
				c0.53-2.9,3.32-4.83,6.22-4.29c2.9,0.53,4.82,3.32,4.29,6.22l-4.39,23.94C880.61,308.69,878.36,310.49,875.83,310.49z
				 M884.62,262.6c-0.32,0-0.64-0.03-0.97-0.09c-2.9-0.53-4.82-3.32-4.29-6.22l4.39-23.95c0.53-2.9,3.32-4.83,6.22-4.29
				c2.9,0.53,4.82,3.32,4.29,6.22l-4.39,23.95C889.39,260.8,887.15,262.6,884.62,262.6z M893.4,214.71c-0.32,0-0.64-0.03-0.97-0.09
				c-2.9-0.53-4.82-3.32-4.29-6.22l4.39-23.94c0.53-2.9,3.32-4.82,6.22-4.29c2.9,0.53,4.82,3.32,4.29,6.22l-4.39,23.94
				C898.18,212.91,895.93,214.71,893.4,214.71z M902.19,166.82c-0.32,0-0.64-0.03-0.97-0.09c-2.9-0.53-4.82-3.32-4.29-6.22
				l4.39-23.95c0.53-2.9,3.31-4.83,6.22-4.29c2.9,0.53,4.82,3.32,4.29,6.22l-4.39,23.95C906.97,165.02,904.72,166.82,902.19,166.82z
				"/>
			<path class="st5" d="M910.98,118.93c-0.32,0-0.64-0.03-0.97-0.09c-2.9-0.53-4.82-3.32-4.29-6.22l2.48-13.51
				c0.47-2.54,2.68-4.38,5.26-4.38h13.74c2.95,0,5.34,2.39,5.34,5.34c0,2.95-2.39,5.34-5.34,5.34h-9.29l-1.68,9.13
				C915.76,117.13,913.51,118.93,910.98,118.93z"/>
			<path class="st5" d="M974.01,105.42H950.6c-2.95,0-5.34-2.39-5.34-5.34c0-2.95,2.39-5.34,5.34-5.34h23.41
				c2.95,0,5.34,2.39,5.34,5.34C979.36,103.02,976.96,105.42,974.01,105.42z"/>
			<path class="st5" d="M1011.16,105.42h-13.74c-2.95,0-5.34-2.39-5.34-5.34c0-2.95,2.39-5.34,5.34-5.34h13.74
				c2.95,0,5.34,2.39,5.34,5.34C1016.51,103.02,1014.11,105.42,1011.16,105.42z"/>
		</g>
		<g>
			<path class="st5" d="M1031.57,226.11h-13.74c-2.95,0-5.34-2.39-5.34-5.34c0-2.95,2.39-5.34,5.34-5.34h13.74
				c2.95,0,5.34,2.39,5.34,5.34C1036.91,223.71,1034.52,226.11,1031.57,226.11z"/>
			<path class="st5" d="M986.07,226.11H954.3c-2.95,0-5.34-2.39-5.34-5.34c0-2.95,2.39-5.34,5.34-5.34h31.77
				c2.95,0,5.34,2.39,5.34,5.34C991.41,223.71,989.02,226.11,986.07,226.11z"/>
			<path class="st5" d="M922.53,226.11h-13.74c-2.95,0-5.34-2.39-5.34-5.34c0-2.95,2.39-5.34,5.34-5.34h13.74
				c2.95,0,5.34,2.39,5.34,5.34C927.88,223.71,925.48,226.11,922.53,226.11z"/>
		</g>
		<g>
			<path class="st5" d="M231.05,349.62c-0.28,0-0.56-0.02-0.84-0.07c-2.91-0.46-4.9-3.2-4.44-6.11l2.14-13.57
				c0.46-2.91,3.21-4.9,6.11-4.44c2.91,0.46,4.9,3.2,4.44,6.11l-2.14,13.57C235.9,347.74,233.63,349.62,231.05,349.62z"/>
			<path class="st5" d="M237.05,311.63c-0.28,0-0.56-0.02-0.84-0.07c-2.92-0.46-4.9-3.2-4.44-6.11l3.86-24.42
				c0.46-2.91,3.21-4.9,6.11-4.44c2.92,0.46,4.9,3.2,4.44,6.11l-3.86,24.42C241.91,309.75,239.63,311.63,237.05,311.63z
				 M244.77,262.8c-0.28,0-0.56-0.02-0.84-0.07c-2.91-0.46-4.9-3.2-4.44-6.11l3.86-24.42c0.46-2.91,3.2-4.9,6.11-4.44
				c2.91,0.46,4.9,3.2,4.44,6.11l-3.86,24.42C249.62,260.92,247.35,262.8,244.77,262.8z M252.48,213.97c-0.28,0-0.56-0.02-0.84-0.07
				c-2.92-0.46-4.9-3.2-4.44-6.11l3.86-24.42c0.46-2.91,3.2-4.9,6.11-4.44c2.92,0.46,4.9,3.2,4.44,6.11l-3.86,24.42
				C257.34,212.09,255.07,213.97,252.48,213.97z"/>
			<path class="st5" d="M260.2,165.14c-0.28,0-0.56-0.02-0.84-0.07c-2.91-0.46-4.9-3.2-4.44-6.11l2.14-13.57
				c0.32-2.04,1.79-3.72,3.78-4.3c1.98-0.58,4.13,0.04,5.5,1.58l9.11,10.28c1.96,2.21,1.75,5.59-0.45,7.54
				c-2.21,1.96-5.59,1.76-7.54-0.45l-1.6-1.81l-0.38,2.39C265.06,163.26,262.78,165.14,260.2,165.14z"/>
			<path class="st5" d="M315.6,211.66c-1.48,0-2.94-0.61-4-1.8l-22.07-24.91c-1.96-2.21-1.75-5.59,0.45-7.54
				c2.21-1.96,5.59-1.75,7.54,0.45l22.07,24.91c1.96,2.21,1.75,5.59-0.45,7.54C318.12,211.22,316.86,211.66,315.6,211.66z"/>
			<path class="st5" d="M346.78,246.85c-1.48,0-2.95-0.61-4-1.8l-9.11-10.28c-1.96-2.21-1.75-5.58,0.45-7.54
				c2.21-1.96,5.58-1.76,7.54,0.45l5.81,6.55l6.94-5.34c2.34-1.8,5.69-1.36,7.49,0.98c1.8,2.34,1.36,5.69-0.98,7.49l-10.89,8.37
				C349.07,246.49,347.92,246.85,346.78,246.85z"/>
			<path class="st5" d="M377.29,223.39c-1.6,0-3.19-0.72-4.24-2.09c-1.8-2.34-1.36-5.69,0.98-7.49l19.61-15.08
				c2.34-1.8,5.69-1.36,7.49,0.98c1.8,2.34,1.36,5.69-0.98,7.49l-19.61,15.08C379.58,223.03,378.43,223.39,377.29,223.39z
				 M416.52,193.23c-1.6,0-3.19-0.72-4.24-2.09c-1.8-2.34-1.36-5.69,0.98-7.49l19.61-15.08c2.34-1.8,5.7-1.36,7.49,0.98
				c1.8,2.34,1.36,5.69-0.98,7.49l-19.61,15.08C418.8,192.87,417.66,193.23,416.52,193.23z"/>
			<path class="st5" d="M464.46,168.26c-0.28,0-0.57-0.02-0.85-0.07c-2.91-0.47-4.9-3.21-4.43-6.12l0.05-0.28l-0.23,0.17
				c-2.34,1.8-5.69,1.36-7.49-0.98c-1.8-2.34-1.36-5.69,0.98-7.49l10.89-8.37c1.74-1.34,4.11-1.47,5.99-0.35
				c1.88,1.12,2.89,3.28,2.54,5.44l-2.18,13.57C469.31,166.39,467.04,168.26,464.46,168.26z"/>
			<path class="st5" d="M441.37,312.08c-0.28,0-0.57-0.02-0.85-0.07c-2.91-0.47-4.9-3.21-4.43-6.12l3.85-23.97
				c0.47-2.91,3.21-4.89,6.12-4.43c2.91,0.47,4.9,3.21,4.43,6.12l-3.85,23.97C446.22,310.21,443.95,312.08,441.37,312.08z
				 M449.07,264.14c-0.28,0-0.57-0.02-0.85-0.07c-2.91-0.47-4.9-3.21-4.43-6.12l3.85-23.97c0.47-2.91,3.21-4.9,6.12-4.43
				c2.91,0.47,4.9,3.21,4.43,6.12l-3.85,23.97C453.92,262.27,451.65,264.14,449.07,264.14z M456.77,216.2
				c-0.28,0-0.57-0.02-0.85-0.07c-2.91-0.47-4.9-3.21-4.43-6.12l3.85-23.97c0.47-2.91,3.2-4.9,6.12-4.43
				c2.91,0.47,4.9,3.21,4.43,6.12l-3.85,23.97C461.61,214.33,459.34,216.2,456.77,216.2z"/>
			<path class="st5" d="M435.34,349.62c-0.28,0-0.57-0.02-0.85-0.07c-2.91-0.47-4.9-3.21-4.43-6.12l2.18-13.57
				c0.47-2.91,3.19-4.9,6.12-4.43c2.91,0.47,4.9,3.21,4.43,6.12l-2.18,13.57C440.19,347.74,437.92,349.62,435.34,349.62z"/>
		</g>
		<path class="st5" d="M790.75,129.9c7.79,7.25,11.83,13.23,11.94,13.4c1.25,1.89,3.33,2.92,5.44,2.92c1.23,0,2.47-0.35,3.57-1.07
			c3-1.98,3.84-6.01,1.86-9.02c-0.19-0.29-4.84-7.29-13.94-15.77c-2.63-2.45-6.75-2.3-9.2,0.33
			C787.97,123.32,788.12,127.44,790.75,129.9z"/>
		<path class="st5" d="M719.35,95.65c-0.15,3.59,2.65,6.63,6.24,6.77c12.21,0.5,23.99,3.12,35.02,7.81
			c0.83,0.35,1.69,0.52,2.54,0.52c2.53,0,4.94-1.49,6-3.97c1.41-3.31-0.14-7.13-3.45-8.54c-12.48-5.3-25.8-8.28-39.59-8.84
			C722.5,89.27,719.5,92.05,719.35,95.65z"/>
		<path class="st5" d="M646.18,117.26c1.16,2.24,3.43,3.52,5.79,3.52c1,0,2.03-0.24,2.98-0.73c12.63-6.53,21.8-9.36,21.89-9.39
			c0.1-0.03,0.21-0.07,0.31-0.1c4.15-1.49,8.31-2.79,12.37-3.88c3.47-0.93,5.54-4.5,4.61-7.97c-0.93-3.47-4.5-5.54-7.97-4.61
			c-4.36,1.17-8.83,2.56-13.27,4.15c-1.43,0.45-10.96,3.53-23.91,10.23C645.78,110.14,644.52,114.06,646.18,117.26z"/>
		<path class="st5" d="M569,241.5c0.1,0,0.19,0.01,0.29,0.01c3.47,0,6.35-2.73,6.5-6.23c0.54-12.53,2.74-24.59,6.53-35.84
			c1.15-3.41-0.69-7.1-4.09-8.25c-3.41-1.16-7.1,0.69-8.25,4.09c-4.18,12.41-6.6,25.68-7.2,39.43
			C562.62,238.31,565.41,241.34,569,241.5z"/>
		<path class="st5" d="M593.11,304.15c-6.64-9.07-11.45-19.99-14.29-32.46c-0.8-3.51-4.3-5.7-7.8-4.9c-3.51,0.8-5.7,4.29-4.9,7.8
			c3.24,14.21,8.79,26.75,16.49,37.26c1.27,1.74,3.25,2.66,5.26,2.66c1.34,0,2.68-0.41,3.84-1.26
			C594.61,311.13,595.24,307.05,593.11,304.15z"/>
		<path class="st5" d="M598.91,167.1c6.89-9.63,15.34-18.62,25.11-26.71c2.77-2.29,3.16-6.4,0.86-9.17
			c-2.29-2.77-6.4-3.16-9.17-0.86c-10.64,8.81-19.86,18.62-27.4,29.16c-2.09,2.93-1.41,6.99,1.51,9.08
			c1.15,0.82,2.47,1.21,3.78,1.21C595.64,169.83,597.64,168.88,598.91,167.1z"/>
		<path class="st5" d="M654.38,337.15c-12.75-1.62-24.35-5.1-34.49-10.34c-3.19-1.66-7.12-0.4-8.77,2.79
			c-1.65,3.19-0.4,7.12,2.79,8.77c11.49,5.94,24.55,9.87,38.82,11.69c0.28,0.03,0.56,0.05,0.83,0.05c3.23,0,6.03-2.4,6.45-5.69
			C660.47,340.87,657.95,337.61,654.38,337.15z"/>
		<path class="st5" d="M734.04,326.64c-1.5-3.27-5.37-4.7-8.63-3.2c-13.92,6.4-26.76,9.98-35.08,11.85
			c-3.51,0.79-5.71,4.28-4.92,7.79c0.68,3.02,3.37,5.08,6.35,5.08c0.47,0,0.96-0.05,1.44-0.16c12.98-2.93,25.65-7.21,37.65-12.72
			C734.11,333.77,735.54,329.9,734.04,326.64z"/>
		<path class="st5" d="M779.99,291.64c-2.58-2.5-6.7-2.43-9.21,0.15c-4.27,4.42-8.93,8.62-13.85,12.49
			c-2.82,2.23-3.31,6.32-1.08,9.15c1.29,1.63,3.19,2.48,5.12,2.48c1.41,0,2.83-0.46,4.03-1.4c5.37-4.23,10.47-8.83,15.15-13.67
			C782.64,298.27,782.58,294.15,779.99,291.64z"/>
	</g>
</g>
</svg>
